<svg width="170" height="49" viewBox="0 0 170 49" fill="none" xmlns="http://www.w3.org/2000/svg">
<path fill-rule="evenodd" clip-rule="evenodd" d="M18.4108 8.09375V21.8874H5.92764V8.09375H0V41.0179H5.92764V27.6744H18.4108V41.0179H24.3378V8.09375H18.4108Z" fill="#33475B"/>
<path fill-rule="evenodd" clip-rule="evenodd" d="M43.304 30.3769C43.304 33.119 41.1031 35.3503 38.4014 35.3503C35.6984 35.3503 33.4988 33.119 33.4988 30.3769V16.2749H27.8848V30.3769C27.8848 36.2598 32.6031 41.0457 38.4014 41.0457C44.1984 41.0457 48.9155 36.2598 48.9155 30.3769V16.2749H43.304V30.3769Z" fill="#33475B"/>
<path fill-rule="evenodd" clip-rule="evenodd" d="M84.9568 17.7267C84.9568 14.8353 86.8428 13.919 88.9082 13.919C90.5702 13.919 92.7704 15.2025 94.2055 16.7627L97.8866 12.3601C96.0476 9.83771 92.3207 8.09424 89.2669 8.09424C83.1599 8.09424 78.7595 11.718 78.7595 17.7267C78.7595 28.8717 92.1865 25.3389 92.1865 31.5785C92.1865 33.5028 90.3457 35.201 88.2358 35.201C84.9123 35.201 83.8335 33.5498 82.3075 31.807L78.2207 36.1174C80.8261 39.374 84.0587 41.0265 87.9203 41.0265C93.7131 41.0265 98.3832 37.3569 98.3832 31.6225C98.3832 19.2392 84.9568 23.0927 84.9568 17.7267Z" fill="#33475B"/>
<path fill-rule="evenodd" clip-rule="evenodd" d="M168.022 35.7589C164.701 35.7589 163.759 34.3015 163.759 32.0683V22.1808H168.921V17.1695H163.759V10.5615L158.057 13.1588V33.2985C158.057 38.4478 161.558 41.0457 166.361 41.0457C167.08 41.0457 168.068 40.9986 168.607 40.8637L170 35.6692C169.371 35.7131 168.653 35.7589 168.022 35.7589Z" fill="#33475B"/>
<path fill-rule="evenodd" clip-rule="evenodd" d="M64.6674 35.295C61.1401 35.295 58.2803 32.3932 58.2803 28.814C58.2803 25.2348 61.1401 22.3329 64.6674 22.3329C68.1947 22.3329 71.0545 25.2348 71.0545 28.814C71.0545 32.3932 68.1947 35.295 64.6674 35.295ZM64.7028 16.44C61.9181 16.44 59.9753 17.2604 58.0979 19.1295V8.29102H52.4668V28.3781C52.4668 35.8962 57.8233 41.0455 63.8425 41.0455C70.5334 41.0455 76.3964 35.8046 76.3964 28.7434C76.3964 21.7714 70.9898 16.44 64.7028 16.44Z" fill="#33475B"/>
<mask id="mask0_77_3077" style="mask-type:alpha" maskUnits="userSpaceOnUse" x="101" y="16" width="25" height="33">
<path d="M125.838 48.8989H101.908V16.144H125.838V48.8989Z" fill="white"/>
</mask>
<g mask="url(#mask0_77_3077)">
<path fill-rule="evenodd" clip-rule="evenodd" d="M114.109 34.8567C110.582 34.8567 107.722 31.9548 107.722 28.3756C107.722 24.7964 110.582 21.8945 114.109 21.8945C117.636 21.8945 120.496 24.7964 120.496 28.3756C120.496 31.9548 117.636 34.8567 114.109 34.8567ZM125.838 28.4462C125.838 21.385 119.975 16.144 113.284 16.144C107.265 16.144 101.908 21.2934 101.908 28.8115V48.8992H107.539V38.0601C109.417 39.9298 111.359 40.7502 114.144 40.7502C120.431 40.7502 125.838 35.4182 125.838 28.4462Z" fill="#33475B"/>
</g>
<mask id="mask1_77_3077" style="mask-type:alpha" maskUnits="userSpaceOnUse" x="109" y="0" width="46" height="49">
<path d="M109.193 0H154.533V48.2114H109.193V0Z" fill="white"/>
</mask>
<g mask="url(#mask1_77_3077)">
<path fill-rule="evenodd" clip-rule="evenodd" d="M142.131 34.741C138.619 34.741 135.772 31.8521 135.772 28.289C135.772 24.7253 138.619 21.8364 142.131 21.8364C145.643 21.8364 148.49 24.7253 148.49 28.289C148.49 31.8521 145.643 34.741 142.131 34.741ZM144.034 15.8667V10.1268C145.511 9.41911 146.545 7.90348 146.545 6.14452V6.01203C146.545 3.58442 144.588 1.59824 142.195 1.59824H142.065C139.673 1.59824 137.716 3.58442 137.716 6.01203V6.14452C137.716 7.90348 138.75 9.41973 140.226 10.1274V15.8667C138.028 16.2116 136.019 17.1316 134.363 18.4857L118.831 6.22625C118.934 5.82691 119.006 5.41581 119.006 4.98365C119.009 2.23471 116.816 0.00274145 114.106 -0.000973337C111.397 -0.00406899 109.196 2.22171 109.193 4.97127C109.19 7.72083 111.383 9.9528 114.094 9.9559C114.976 9.95713 115.794 9.70267 116.51 9.28909L131.788 21.3492C130.489 23.339 129.727 25.7227 129.727 28.289C129.727 30.9754 130.564 33.4606 131.977 35.5043L127.331 40.219C126.964 40.107 126.583 40.029 126.179 40.029C123.953 40.029 122.148 41.8604 122.148 44.1196C122.148 46.3794 123.953 48.2108 126.179 48.2108C128.406 48.2108 130.211 46.3794 130.211 44.1196C130.211 43.7109 130.134 43.324 130.024 42.9513L134.62 38.288C136.706 39.9033 139.304 40.8741 142.131 40.8741C148.981 40.8741 154.533 35.2394 154.533 28.289C154.533 21.9968 149.978 16.7985 144.034 15.8667Z" fill="#FF7A59"/>
</g>
</svg>
